<svg width="360" height="16" viewBox="0 0 360 16" fill="none" xmlns="http://www.w3.org/2000/svg">
<rect x="0.5" y="0.5" width="15" height="15" rx="1.5" stroke="#2E2F42" stroke-opacity="0.4"/>
<path d="M26.2031 3.46875V12H25.0723V3.46875H26.2031ZM35.7705 10.916V7.65234C35.7705 7.40234 35.7198 7.18555 35.6182 7.00195C35.5205 6.81445 35.3721 6.66992 35.1729 6.56836C34.9737 6.4668 34.7276 6.41602 34.4346 6.41602C34.1612 6.41602 33.9209 6.46289 33.7139 6.55664C33.5108 6.65039 33.3506 6.77344 33.2334 6.92578C33.1202 7.07812 33.0635 7.24219 33.0635 7.41797H31.9795C31.9795 7.19141 32.0381 6.9668 32.1553 6.74414C32.2725 6.52148 32.4405 6.32031 32.6592 6.14062C32.8819 5.95703 33.1475 5.8125 33.4561 5.70703C33.7686 5.59766 34.1163 5.54297 34.4991 5.54297C34.96 5.54297 35.3663 5.62109 35.7178 5.77734C36.0733 5.93359 36.3506 6.16992 36.5498 6.48633C36.753 6.79883 36.8545 7.19141 36.8545 7.66406V10.6172C36.8545 10.8281 36.8721 11.0527 36.9073 11.291C36.9463 11.5293 37.003 11.7344 37.0772 11.9062V12H35.9463C35.8916 11.875 35.8487 11.709 35.8174 11.502C35.7862 11.291 35.7705 11.0957 35.7705 10.916ZM35.958 8.15625L35.9698 8.91797H34.8741C34.5655 8.91797 34.2901 8.94336 34.0479 8.99414C33.8057 9.04102 33.6026 9.11328 33.4385 9.21094C33.2745 9.30859 33.1495 9.43164 33.0635 9.58008C32.9776 9.72461 32.9346 9.89453 32.9346 10.0898C32.9346 10.2891 32.9795 10.4707 33.0694 10.6348C33.1592 10.7988 33.294 10.9297 33.4737 11.0273C33.6573 11.1211 33.8819 11.168 34.1475 11.168C34.4795 11.168 34.7725 11.0977 35.0264 10.957C35.2803 10.8164 35.4815 10.6445 35.6299 10.4414C35.7823 10.2383 35.8643 10.041 35.876 9.84961L36.3389 10.3711C36.3116 10.5352 36.2373 10.7168 36.1163 10.916C35.9952 11.1152 35.833 11.3066 35.6299 11.4902C35.4307 11.6699 35.1924 11.8203 34.9151 11.9414C34.6416 12.0586 34.333 12.1172 33.9893 12.1172C33.5596 12.1172 33.1827 12.0332 32.8584 11.8652C32.5381 11.6973 32.2881 11.4727 32.1084 11.1914C31.9327 10.9062 31.8448 10.5879 31.8448 10.2363C31.8448 9.89648 31.9112 9.59766 32.044 9.33984C32.1768 9.07812 32.3682 8.86133 32.6182 8.68945C32.8682 8.51367 33.169 8.38086 33.5205 8.29102C33.8721 8.20117 34.2647 8.15625 34.6983 8.15625H35.958ZM41.5767 11.2266C41.8345 11.2266 42.0728 11.1738 42.2916 11.0684C42.5103 10.9629 42.69 10.8184 42.8306 10.6348C42.9712 10.4473 43.0513 10.2344 43.0709 9.99609H44.1021C44.0826 10.3711 43.9556 10.7207 43.7212 11.0449C43.4908 11.3652 43.188 11.625 42.813 11.8242C42.438 12.0195 42.0259 12.1172 41.5767 12.1172C41.1002 12.1172 40.6841 12.0332 40.3287 11.8652C39.9771 11.6973 39.6841 11.4668 39.4498 11.1738C39.2193 10.8809 39.0455 10.5449 38.9283 10.166C38.815 9.7832 38.7584 9.37891 38.7584 8.95312V8.70703C38.7584 8.28125 38.815 7.87891 38.9283 7.5C39.0455 7.11719 39.2193 6.7793 39.4498 6.48633C39.6841 6.19336 39.9771 5.96289 40.3287 5.79492C40.6841 5.62695 41.1002 5.54297 41.5767 5.54297C42.0728 5.54297 42.5064 5.64453 42.8775 5.84766C43.2486 6.04688 43.5396 6.32031 43.7505 6.66797C43.9654 7.01172 44.0826 7.40234 44.1021 7.83984H43.0709C43.0513 7.57812 42.9771 7.3418 42.8482 7.13086C42.7232 6.91992 42.5513 6.75195 42.3326 6.62695C42.1177 6.49805 41.8658 6.43359 41.5767 6.43359C41.2447 6.43359 40.9654 6.5 40.7388 6.63281C40.5162 6.76172 40.3384 6.9375 40.2056 7.16016C40.0767 7.37891 39.983 7.62305 39.9244 7.89258C39.8697 8.1582 39.8423 8.42969 39.8423 8.70703V8.95312C39.8423 9.23047 39.8697 9.50391 39.9244 9.77344C39.9791 10.043 40.0709 10.2871 40.1998 10.5059C40.3326 10.7246 40.5103 10.9004 40.733 11.0332C40.9595 11.1621 41.2408 11.2266 41.5767 11.2266ZM48.338 11.2266C48.5958 11.2266 48.8341 11.1738 49.0528 11.0684C49.2716 10.9629 49.4513 10.8184 49.5919 10.6348C49.7325 10.4473 49.8126 10.2344 49.8321 9.99609H50.8634C50.8438 10.3711 50.7169 10.7207 50.4825 11.0449C50.252 11.3652 49.9493 11.625 49.5743 11.8242C49.1993 12.0195 48.7872 12.1172 48.338 12.1172C47.8614 12.1172 47.4454 12.0332 47.0899 11.8652C46.7384 11.6973 46.4454 11.4668 46.211 11.1738C45.9805 10.8809 45.8067 10.5449 45.6895 10.166C45.5763 9.7832 45.5196 9.37891 45.5196 8.95312V8.70703C45.5196 8.28125 45.5763 7.87891 45.6895 7.5C45.8067 7.11719 45.9805 6.7793 46.211 6.48633C46.4454 6.19336 46.7384 5.96289 47.0899 5.79492C47.4454 5.62695 47.8614 5.54297 48.338 5.54297C48.8341 5.54297 49.2677 5.64453 49.6388 5.84766C50.0098 6.04688 50.3009 6.32031 50.5118 6.66797C50.7266 7.01172 50.8438 7.40234 50.8634 7.83984H49.8321C49.8126 7.57812 49.7384 7.3418 49.6095 7.13086C49.4845 6.91992 49.3126 6.75195 49.0938 6.62695C48.879 6.49805 48.627 6.43359 48.338 6.43359C48.0059 6.43359 47.7266 6.5 47.5001 6.63281C47.2774 6.76172 47.0997 6.9375 46.9669 7.16016C46.838 7.37891 46.7442 7.62305 46.6856 7.89258C46.6309 8.1582 46.6036 8.42969 46.6036 8.70703V8.95312C46.6036 9.23047 46.6309 9.50391 46.6856 9.77344C46.7403 10.043 46.8321 10.2871 46.961 10.5059C47.0938 10.7246 47.2716 10.9004 47.4942 11.0332C47.7208 11.1621 48.002 11.2266 48.338 11.2266ZM55.193 12.1172C54.7516 12.1172 54.3512 12.043 53.9918 11.8945C53.6363 11.7422 53.3297 11.5293 53.0719 11.2559C52.818 10.9824 52.6227 10.6582 52.4859 10.2832C52.3492 9.9082 52.2809 9.49805 52.2809 9.05273V8.80664C52.2809 8.29102 52.357 7.83203 52.5094 7.42969C52.6617 7.02344 52.8687 6.67969 53.1305 6.39844C53.3922 6.11719 53.6891 5.9043 54.0211 5.75977C54.3531 5.61523 54.6969 5.54297 55.0523 5.54297C55.5055 5.54297 55.8961 5.62109 56.2242 5.77734C56.5562 5.93359 56.8277 6.15234 57.0387 6.43359C57.2496 6.71094 57.4059 7.03906 57.5074 7.41797C57.609 7.79297 57.6598 8.20312 57.6598 8.64844V9.13477H52.9254V8.25H56.5758V8.16797C56.5602 7.88672 56.5016 7.61328 56.4 7.34766C56.3023 7.08203 56.1461 6.86328 55.9312 6.69141C55.7164 6.51953 55.4234 6.43359 55.0523 6.43359C54.8062 6.43359 54.5797 6.48633 54.3727 6.5918C54.1656 6.69336 53.9879 6.8457 53.8395 7.04883C53.691 7.25195 53.5758 7.5 53.4937 7.79297C53.4117 8.08594 53.3707 8.42383 53.3707 8.80664V9.05273C53.3707 9.35352 53.4117 9.63672 53.4937 9.90234C53.5797 10.1641 53.7027 10.3945 53.8629 10.5938C54.027 10.793 54.2242 10.9492 54.4547 11.0625C54.6891 11.1758 54.9547 11.2324 55.2516 11.2324C55.6344 11.2324 55.9586 11.1543 56.2242 10.998C56.4898 10.8418 56.7223 10.6328 56.9215 10.3711L57.5777 10.8926C57.441 11.0996 57.2672 11.2969 57.0562 11.4844C56.8453 11.6719 56.5855 11.8242 56.277 11.9414C55.9723 12.0586 55.6109 12.1172 55.193 12.1172ZM60.4894 6.87891V14.4375H59.3995V5.66016H60.3956L60.4894 6.87891ZM64.7609 8.77734V8.90039C64.7609 9.36133 64.7062 9.78906 64.5968 10.1836C64.4874 10.5742 64.3273 10.9141 64.1163 11.2031C63.9093 11.4922 63.6534 11.7168 63.3488 11.877C63.0441 12.0371 62.6945 12.1172 62.2999 12.1172C61.8976 12.1172 61.5421 12.0508 61.2335 11.918C60.9249 11.7852 60.6632 11.5918 60.4484 11.3379C60.2335 11.084 60.0616 10.7793 59.9327 10.4238C59.8077 10.0684 59.7218 9.66797 59.6749 9.22266V8.56641C59.7218 8.09766 59.8097 7.67773 59.9386 7.30664C60.0675 6.93555 60.2374 6.61914 60.4484 6.35742C60.6632 6.0918 60.923 5.89062 61.2277 5.75391C61.5323 5.61328 61.8839 5.54297 62.2823 5.54297C62.6808 5.54297 63.0343 5.62109 63.3429 5.77734C63.6515 5.92969 63.9113 6.14844 64.1222 6.43359C64.3331 6.71875 64.4913 7.06055 64.5968 7.45898C64.7062 7.85352 64.7609 8.29297 64.7609 8.77734ZM63.671 8.90039V8.77734C63.671 8.46094 63.6378 8.16406 63.5714 7.88672C63.505 7.60547 63.4015 7.35938 63.2609 7.14844C63.1241 6.93359 62.9484 6.76562 62.7335 6.64453C62.5187 6.51953 62.2628 6.45703 61.9659 6.45703C61.6925 6.45703 61.4542 6.50391 61.2511 6.59766C61.0519 6.69141 60.882 6.81836 60.7413 6.97852C60.6007 7.13477 60.4855 7.31445 60.3956 7.51758C60.3097 7.7168 60.2452 7.92383 60.2023 8.13867V9.65625C60.2804 9.92969 60.3898 10.1875 60.5304 10.4297C60.671 10.668 60.8585 10.8613 61.0929 11.0098C61.3273 11.1543 61.6222 11.2266 61.9777 11.2266C62.2706 11.2266 62.5226 11.166 62.7335 11.0449C62.9484 10.9199 63.1241 10.75 63.2609 10.5352C63.4015 10.3203 63.505 10.0742 63.5714 9.79688C63.6378 9.51562 63.671 9.2168 63.671 8.90039ZM69.278 5.66016V6.49219H65.8502V5.66016H69.278ZM67.0104 4.11914H68.0944V10.4297C68.0944 10.6445 68.1276 10.8066 68.194 10.916C68.2604 11.0254 68.3463 11.0977 68.4518 11.1328C68.5573 11.168 68.6705 11.1855 68.7916 11.1855C68.8815 11.1855 68.9752 11.1777 69.0729 11.1621C69.1745 11.1426 69.2506 11.127 69.3014 11.1152L69.3073 12C69.2213 12.0273 69.108 12.0527 68.9674 12.0762C68.8307 12.1035 68.6647 12.1172 68.4694 12.1172C68.2038 12.1172 67.9596 12.0645 67.737 11.959C67.5143 11.8535 67.3366 11.6777 67.2038 11.4316C67.0748 11.1816 67.0104 10.8457 67.0104 10.4238V4.11914ZM77.1403 5.66016V6.49219H73.7126V5.66016H77.1403ZM74.8727 4.11914H75.9567V10.4297C75.9567 10.6445 75.9899 10.8066 76.0563 10.916C76.1227 11.0254 76.2087 11.0977 76.3141 11.1328C76.4196 11.168 76.5329 11.1855 76.654 11.1855C76.7438 11.1855 76.8376 11.1777 76.9352 11.1621C77.0368 11.1426 77.113 11.127 77.1637 11.1152L77.1696 12C77.0837 12.0273 76.9704 12.0527 76.8298 12.0762C76.693 12.1035 76.527 12.1172 76.3317 12.1172C76.0661 12.1172 75.822 12.0645 75.5993 11.959C75.3766 11.8535 75.1989 11.6777 75.0661 11.4316C74.9372 11.1816 74.8727 10.8457 74.8727 10.4238V4.11914ZM79.9758 3V12H78.8918V3H79.9758ZM79.718 8.58984L79.2668 8.57227C79.2707 8.13867 79.3352 7.73828 79.4602 7.37109C79.5852 7 79.7609 6.67773 79.9875 6.4043C80.2141 6.13086 80.4836 5.91992 80.7961 5.77148C81.1125 5.61914 81.4621 5.54297 81.8449 5.54297C82.1574 5.54297 82.4387 5.58594 82.6887 5.67188C82.9387 5.75391 83.1516 5.88672 83.3273 6.07031C83.507 6.25391 83.6437 6.49219 83.7375 6.78516C83.8312 7.07422 83.8781 7.42773 83.8781 7.8457V12H82.7883V7.83398C82.7883 7.50195 82.7395 7.23633 82.6418 7.03711C82.5441 6.83398 82.4016 6.6875 82.2141 6.59766C82.0266 6.50391 81.7961 6.45703 81.5227 6.45703C81.2531 6.45703 81.007 6.51367 80.7844 6.62695C80.5656 6.74023 80.3762 6.89648 80.216 7.0957C80.0598 7.29492 79.9367 7.52344 79.8469 7.78125C79.7609 8.03516 79.718 8.30469 79.718 8.58984ZM88.612 12.1172C88.1706 12.1172 87.7702 12.043 87.4109 11.8945C87.0554 11.7422 86.7487 11.5293 86.4909 11.2559C86.237 10.9824 86.0417 10.6582 85.905 10.2832C85.7683 9.9082 85.6999 9.49805 85.6999 9.05273V8.80664C85.6999 8.29102 85.7761 7.83203 85.9284 7.42969C86.0808 7.02344 86.2878 6.67969 86.5495 6.39844C86.8112 6.11719 87.1081 5.9043 87.4402 5.75977C87.7722 5.61523 88.1159 5.54297 88.4714 5.54297C88.9245 5.54297 89.3152 5.62109 89.6433 5.77734C89.9753 5.93359 90.2468 6.15234 90.4577 6.43359C90.6687 6.71094 90.8249 7.03906 90.9265 7.41797C91.028 7.79297 91.0788 8.20312 91.0788 8.64844V9.13477H86.3445V8.25H89.9948V8.16797C89.9792 7.88672 89.9206 7.61328 89.8191 7.34766C89.7214 7.08203 89.5652 6.86328 89.3503 6.69141C89.1355 6.51953 88.8425 6.43359 88.4714 6.43359C88.2253 6.43359 87.9987 6.48633 87.7917 6.5918C87.5847 6.69336 87.407 6.8457 87.2585 7.04883C87.1101 7.25195 86.9948 7.5 86.9128 7.79297C86.8308 8.08594 86.7898 8.42383 86.7898 8.80664V9.05273C86.7898 9.35352 86.8308 9.63672 86.9128 9.90234C86.9987 10.1641 87.1218 10.3945 87.282 10.5938C87.446 10.793 87.6433 10.9492 87.8737 11.0625C88.1081 11.1758 88.3737 11.2324 88.6706 11.2324C89.0534 11.2324 89.3777 11.1543 89.6433 10.998C89.9089 10.8418 90.1413 10.6328 90.3405 10.3711L90.9968 10.8926C90.8601 11.0996 90.6862 11.2969 90.4753 11.4844C90.2644 11.6719 90.0046 11.8242 89.696 11.9414C89.3913 12.0586 89.03 12.1172 88.612 12.1172ZM98.9353 5.66016V6.49219H95.5076V5.66016H98.9353ZM96.6677 4.11914H97.7517V10.4297C97.7517 10.6445 97.7849 10.8066 97.8513 10.916C97.9177 11.0254 98.0037 11.0977 98.1091 11.1328C98.2146 11.168 98.3279 11.1855 98.449 11.1855C98.5388 11.1855 98.6326 11.1777 98.7302 11.1621C98.8318 11.1426 98.908 11.127 98.9587 11.1152L98.9646 12C98.8787 12.0273 98.7654 12.0527 98.6248 12.0762C98.488 12.1035 98.322 12.1172 98.1267 12.1172C97.8611 12.1172 97.617 12.0645 97.3943 11.959C97.1716 11.8535 96.9939 11.6777 96.8611 11.4316C96.7322 11.1816 96.6677 10.8457 96.6677 10.4238V4.11914ZM103.318 12.1172C102.876 12.1172 102.476 12.043 102.116 11.8945C101.761 11.7422 101.454 11.5293 101.197 11.2559C100.943 10.9824 100.747 10.6582 100.611 10.2832C100.474 9.9082 100.406 9.49805 100.406 9.05273V8.80664C100.406 8.29102 100.482 7.83203 100.634 7.42969C100.786 7.02344 100.993 6.67969 101.255 6.39844C101.517 6.11719 101.814 5.9043 102.146 5.75977C102.478 5.61523 102.822 5.54297 103.177 5.54297C103.63 5.54297 104.021 5.62109 104.349 5.77734C104.681 5.93359 104.952 6.15234 105.163 6.43359C105.374 6.71094 105.531 7.03906 105.632 7.41797C105.734 7.79297 105.784 8.20312 105.784 8.64844V9.13477H101.05V8.25H104.7V8.16797C104.685 7.88672 104.626 7.61328 104.525 7.34766C104.427 7.08203 104.271 6.86328 104.056 6.69141C103.841 6.51953 103.548 6.43359 103.177 6.43359C102.931 6.43359 102.704 6.48633 102.497 6.5918C102.29 6.69336 102.113 6.8457 101.964 7.04883C101.816 7.25195 101.7 7.5 101.618 7.79297C101.536 8.08594 101.495 8.42383 101.495 8.80664V9.05273C101.495 9.35352 101.536 9.63672 101.618 9.90234C101.704 10.1641 101.827 10.3945 101.988 10.5938C102.152 10.793 102.349 10.9492 102.579 11.0625C102.814 11.1758 103.079 11.2324 103.376 11.2324C103.759 11.2324 104.083 11.1543 104.349 10.998C104.615 10.8418 104.847 10.6328 105.046 10.3711L105.702 10.8926C105.566 11.0996 105.392 11.2969 105.181 11.4844C104.97 11.6719 104.71 11.8242 104.402 11.9414C104.097 12.0586 103.736 12.1172 103.318 12.1172ZM108.614 6.65625V12H107.53V5.66016H108.585L108.614 6.65625ZM110.595 5.625L110.589 6.63281C110.499 6.61328 110.413 6.60156 110.331 6.59766C110.253 6.58984 110.163 6.58594 110.061 6.58594C109.811 6.58594 109.591 6.625 109.399 6.70312C109.208 6.78125 109.046 6.89062 108.913 7.03125C108.78 7.17188 108.675 7.33984 108.596 7.53516C108.522 7.72656 108.473 7.9375 108.45 8.16797L108.145 8.34375C108.145 7.96094 108.182 7.60156 108.257 7.26562C108.335 6.92969 108.454 6.63281 108.614 6.375C108.774 6.11328 108.977 5.91016 109.223 5.76562C109.473 5.61719 109.77 5.54297 110.114 5.54297C110.192 5.54297 110.282 5.55273 110.384 5.57227C110.485 5.58789 110.555 5.60547 110.595 5.625ZM113.155 6.91992V12H112.065V5.66016H113.096L113.155 6.91992ZM112.932 8.58984L112.428 8.57227C112.432 8.13867 112.489 7.73828 112.598 7.37109C112.707 7 112.869 6.67773 113.084 6.4043C113.299 6.13086 113.567 5.91992 113.887 5.77148C114.207 5.61914 114.578 5.54297 115 5.54297C115.297 5.54297 115.571 5.58594 115.821 5.67188C116.071 5.75391 116.287 5.88477 116.471 6.06445C116.655 6.24414 116.797 6.47461 116.899 6.75586C117 7.03711 117.051 7.37695 117.051 7.77539V12H115.967V7.82812C115.967 7.49609 115.91 7.23047 115.797 7.03125C115.688 6.83203 115.532 6.6875 115.328 6.59766C115.125 6.50391 114.887 6.45703 114.614 6.45703C114.293 6.45703 114.026 6.51367 113.811 6.62695C113.596 6.74023 113.424 6.89648 113.295 7.0957C113.166 7.29492 113.073 7.52344 113.014 7.78125C112.959 8.03516 112.932 8.30469 112.932 8.58984ZM117.039 7.99219L116.313 8.21484C116.317 7.86719 116.373 7.5332 116.483 7.21289C116.596 6.89258 116.758 6.60742 116.969 6.35742C117.184 6.10742 117.448 5.91016 117.76 5.76562C118.073 5.61719 118.43 5.54297 118.832 5.54297C119.172 5.54297 119.473 5.58789 119.735 5.67773C120 5.76758 120.223 5.90625 120.403 6.09375C120.586 6.27734 120.725 6.51367 120.819 6.80273C120.912 7.0918 120.959 7.43555 120.959 7.83398V12H119.869V7.82227C119.869 7.4668 119.813 7.19141 119.7 6.99609C119.59 6.79688 119.434 6.6582 119.231 6.58008C119.032 6.49805 118.793 6.45703 118.516 6.45703C118.278 6.45703 118.067 6.49805 117.883 6.58008C117.7 6.66211 117.545 6.77539 117.42 6.91992C117.295 7.06055 117.2 7.22266 117.133 7.40625C117.071 7.58984 117.039 7.78516 117.039 7.99219ZM126.771 10.3184C126.771 10.1621 126.736 10.0176 126.666 9.88477C126.599 9.74805 126.461 9.625 126.25 9.51562C126.043 9.40234 125.73 9.30469 125.312 9.22266C124.961 9.14844 124.642 9.06055 124.357 8.95898C124.076 8.85742 123.836 8.73438 123.637 8.58984C123.441 8.44531 123.291 8.27539 123.185 8.08008C123.08 7.88477 123.027 7.65625 123.027 7.39453C123.027 7.14453 123.082 6.9082 123.191 6.68555C123.305 6.46289 123.463 6.26562 123.666 6.09375C123.873 5.92188 124.121 5.78711 124.41 5.68945C124.699 5.5918 125.021 5.54297 125.377 5.54297C125.885 5.54297 126.318 5.63281 126.678 5.8125C127.037 5.99219 127.312 6.23242 127.504 6.5332C127.695 6.83008 127.791 7.16016 127.791 7.52344H126.707C126.707 7.34766 126.654 7.17773 126.549 7.01367C126.447 6.8457 126.297 6.70703 126.097 6.59766C125.902 6.48828 125.662 6.43359 125.377 6.43359C125.076 6.43359 124.832 6.48047 124.644 6.57422C124.461 6.66406 124.326 6.7793 124.24 6.91992C124.158 7.06055 124.117 7.20898 124.117 7.36523C124.117 7.48242 124.137 7.58789 124.176 7.68164C124.219 7.77148 124.293 7.85547 124.398 7.93359C124.504 8.00781 124.652 8.07812 124.844 8.14453C125.035 8.21094 125.279 8.27734 125.576 8.34375C126.096 8.46094 126.523 8.60156 126.859 8.76562C127.195 8.92969 127.445 9.13086 127.609 9.36914C127.773 9.60742 127.855 9.89648 127.855 10.2363C127.855 10.5137 127.797 10.7676 127.68 10.998C127.566 11.2285 127.4 11.4277 127.181 11.5957C126.967 11.7598 126.709 11.8887 126.408 11.9824C126.111 12.0723 125.777 12.1172 125.406 12.1172C124.847 12.1172 124.375 12.0176 123.988 11.8184C123.601 11.6191 123.308 11.3613 123.109 11.0449C122.91 10.7285 122.81 10.3945 122.81 10.043H123.9C123.916 10.3398 124.002 10.5762 124.158 10.752C124.314 10.9238 124.506 11.0469 124.732 11.1211C124.959 11.1914 125.183 11.2266 125.406 11.2266C125.703 11.2266 125.951 11.1875 126.15 11.1094C126.353 11.0312 126.508 10.9238 126.613 10.7871C126.719 10.6504 126.771 10.4941 126.771 10.3184ZM136.954 10.916V7.65234C136.954 7.40234 136.903 7.18555 136.802 7.00195C136.704 6.81445 136.556 6.66992 136.356 6.56836C136.157 6.4668 135.911 6.41602 135.618 6.41602C135.345 6.41602 135.104 6.46289 134.897 6.55664C134.694 6.65039 134.534 6.77344 134.417 6.92578C134.304 7.07812 134.247 7.24219 134.247 7.41797H133.163C133.163 7.19141 133.222 6.9668 133.339 6.74414C133.456 6.52148 133.624 6.32031 133.843 6.14062C134.065 5.95703 134.331 5.8125 134.64 5.70703C134.952 5.59766 135.3 5.54297 135.683 5.54297C136.143 5.54297 136.55 5.62109 136.901 5.77734C137.257 5.93359 137.534 6.16992 137.733 6.48633C137.936 6.79883 138.038 7.19141 138.038 7.66406V10.6172C138.038 10.8281 138.056 11.0527 138.091 11.291C138.13 11.5293 138.186 11.7344 138.261 11.9062V12H137.13C137.075 11.875 137.032 11.709 137.001 11.502C136.97 11.291 136.954 11.0957 136.954 10.916ZM137.141 8.15625L137.153 8.91797H136.058C135.749 8.91797 135.474 8.94336 135.231 8.99414C134.989 9.04102 134.786 9.11328 134.622 9.21094C134.458 9.30859 134.333 9.43164 134.247 9.58008C134.161 9.72461 134.118 9.89453 134.118 10.0898C134.118 10.2891 134.163 10.4707 134.253 10.6348C134.343 10.7988 134.477 10.9297 134.657 11.0273C134.841 11.1211 135.065 11.168 135.331 11.168C135.663 11.168 135.956 11.0977 136.21 10.957C136.464 10.8164 136.665 10.6445 136.813 10.4414C136.966 10.2383 137.048 10.041 137.059 9.84961L137.522 10.3711C137.495 10.5352 137.421 10.7168 137.3 10.916C137.179 11.1152 137.016 11.3066 136.813 11.4902C136.614 11.6699 136.376 11.8203 136.099 11.9414C135.825 12.0586 135.516 12.1172 135.173 12.1172C134.743 12.1172 134.366 12.0332 134.042 11.8652C133.722 11.6973 133.472 11.4727 133.292 11.1914C133.116 10.9062 133.028 10.5879 133.028 10.2363C133.028 9.89648 133.095 9.59766 133.227 9.33984C133.36 9.07812 133.552 8.86133 133.802 8.68945C134.052 8.51367 134.352 8.38086 134.704 8.29102C135.056 8.20117 135.448 8.15625 135.882 8.15625H137.141ZM141.307 7.01367V12H140.223V5.66016H141.248L141.307 7.01367ZM141.049 8.58984L140.598 8.57227C140.602 8.13867 140.666 7.73828 140.791 7.37109C140.916 7 141.092 6.67773 141.319 6.4043C141.545 6.13086 141.815 5.91992 142.127 5.77148C142.444 5.61914 142.793 5.54297 143.176 5.54297C143.489 5.54297 143.77 5.58594 144.02 5.67188C144.27 5.75391 144.483 5.88672 144.659 6.07031C144.838 6.25391 144.975 6.49219 145.069 6.78516C145.162 7.07422 145.209 7.42773 145.209 7.8457V12H144.12V7.83398C144.12 7.50195 144.071 7.23633 143.973 7.03711C143.875 6.83398 143.733 6.6875 143.545 6.59766C143.358 6.50391 143.127 6.45703 142.854 6.45703C142.584 6.45703 142.338 6.51367 142.116 6.62695C141.897 6.74023 141.707 6.89648 141.547 7.0957C141.391 7.29492 141.268 7.52344 141.178 7.78125C141.092 8.03516 141.049 8.30469 141.049 8.58984ZM151.332 10.7695V3H152.422V12H151.426L151.332 10.7695ZM147.066 8.90039V8.77734C147.066 8.29297 147.125 7.85352 147.242 7.45898C147.363 7.06055 147.533 6.71875 147.752 6.43359C147.975 6.14844 148.238 5.92969 148.543 5.77734C148.851 5.62109 149.195 5.54297 149.574 5.54297C149.973 5.54297 150.32 5.61328 150.617 5.75391C150.918 5.89062 151.172 6.0918 151.379 6.35742C151.59 6.61914 151.756 6.93555 151.877 7.30664C151.998 7.67773 152.082 8.09766 152.129 8.56641V9.10547C152.086 9.57031 152.002 9.98828 151.877 10.3594C151.756 10.7305 151.59 11.0469 151.379 11.3086C151.172 11.5703 150.918 11.7715 150.617 11.9121C150.316 12.0488 149.965 12.1172 149.562 12.1172C149.191 12.1172 148.851 12.0371 148.543 11.877C148.238 11.7168 147.975 11.4922 147.752 11.2031C147.533 10.9141 147.363 10.5742 147.242 10.1836C147.125 9.78906 147.066 9.36133 147.066 8.90039ZM148.156 8.77734V8.90039C148.156 9.2168 148.187 9.51367 148.25 9.79102C148.316 10.0684 148.418 10.3125 148.555 10.5234C148.691 10.7344 148.865 10.9004 149.076 11.0215C149.287 11.1387 149.539 11.1973 149.832 11.1973C150.191 11.1973 150.486 11.1211 150.717 10.9688C150.951 10.8164 151.139 10.6152 151.279 10.3652C151.42 10.1152 151.529 9.84375 151.607 9.55078V8.13867C151.56 7.92383 151.492 7.7168 151.402 7.51758C151.316 7.31445 151.203 7.13477 151.062 6.97852C150.926 6.81836 150.756 6.69141 150.553 6.59766C150.353 6.50391 150.117 6.45703 149.844 6.45703C149.547 6.45703 149.291 6.51953 149.076 6.64453C148.865 6.76562 148.691 6.93359 148.555 7.14844C148.418 7.35938 148.316 7.60547 148.25 7.88672C148.187 8.16406 148.156 8.46094 148.156 8.77734ZM160.583 11.2266C160.841 11.2266 161.079 11.1738 161.298 11.0684C161.517 10.9629 161.696 10.8184 161.837 10.6348C161.977 10.4473 162.058 10.2344 162.077 9.99609H163.108C163.089 10.3711 162.962 10.7207 162.727 11.0449C162.497 11.3652 162.194 11.625 161.819 11.8242C161.444 12.0195 161.032 12.1172 160.583 12.1172C160.106 12.1172 159.69 12.0332 159.335 11.8652C158.983 11.6973 158.69 11.4668 158.456 11.1738C158.226 10.8809 158.052 10.5449 157.935 10.166C157.821 9.7832 157.765 9.37891 157.765 8.95312V8.70703C157.765 8.28125 157.821 7.87891 157.935 7.5C158.052 7.11719 158.226 6.7793 158.456 6.48633C158.69 6.19336 158.983 5.96289 159.335 5.79492C159.69 5.62695 160.106 5.54297 160.583 5.54297C161.079 5.54297 161.513 5.64453 161.884 5.84766C162.255 6.04688 162.546 6.32031 162.757 6.66797C162.972 7.01172 163.089 7.40234 163.108 7.83984H162.077C162.058 7.57812 161.983 7.3418 161.854 7.13086C161.729 6.91992 161.558 6.75195 161.339 6.62695C161.124 6.49805 160.872 6.43359 160.583 6.43359C160.251 6.43359 159.972 6.5 159.745 6.63281C159.522 6.76172 159.345 6.9375 159.212 7.16016C159.083 7.37891 158.989 7.62305 158.931 7.89258C158.876 8.1582 158.849 8.42969 158.849 8.70703V8.95312C158.849 9.23047 158.876 9.50391 158.931 9.77344C158.985 10.043 159.077 10.2871 159.206 10.5059C159.339 10.7246 159.517 10.9004 159.739 11.0332C159.966 11.1621 160.247 11.2266 160.583 11.2266ZM164.52 8.90039V8.76562C164.52 8.30859 164.586 7.88477 164.719 7.49414C164.852 7.09961 165.043 6.75781 165.293 6.46875C165.543 6.17578 165.846 5.94922 166.202 5.78906C166.557 5.625 166.956 5.54297 167.397 5.54297C167.842 5.54297 168.243 5.625 168.598 5.78906C168.958 5.94922 169.262 6.17578 169.512 6.46875C169.766 6.75781 169.959 7.09961 170.092 7.49414C170.225 7.88477 170.291 8.30859 170.291 8.76562V8.90039C170.291 9.35742 170.225 9.78125 170.092 10.1719C169.959 10.5625 169.766 10.9043 169.512 11.1973C169.262 11.4863 168.959 11.7129 168.604 11.877C168.252 12.0371 167.854 12.1172 167.409 12.1172C166.963 12.1172 166.563 12.0371 166.208 11.877C165.852 11.7129 165.547 11.4863 165.293 11.1973C165.043 10.9043 164.852 10.5625 164.719 10.1719C164.586 9.78125 164.52 9.35742 164.52 8.90039ZM165.604 8.76562V8.90039C165.604 9.2168 165.641 9.51562 165.715 9.79688C165.79 10.0742 165.901 10.3203 166.049 10.5352C166.202 10.75 166.391 10.9199 166.618 11.0449C166.844 11.166 167.108 11.2266 167.409 11.2266C167.706 11.2266 167.965 11.166 168.188 11.0449C168.415 10.9199 168.602 10.75 168.75 10.5352C168.899 10.3203 169.01 10.0742 169.084 9.79688C169.163 9.51562 169.202 9.2168 169.202 8.90039V8.76562C169.202 8.45312 169.163 8.1582 169.084 7.88086C169.01 7.59961 168.897 7.35156 168.745 7.13672C168.596 6.91797 168.409 6.74609 168.182 6.62109C167.959 6.49609 167.698 6.43359 167.397 6.43359C167.1 6.43359 166.838 6.49609 166.612 6.62109C166.389 6.74609 166.202 6.91797 166.049 7.13672C165.901 7.35156 165.79 7.59961 165.715 7.88086C165.641 8.1582 165.604 8.45312 165.604 8.76562ZM173.215 7.01367V12H172.131V5.66016H173.156L173.215 7.01367ZM172.957 8.58984L172.506 8.57227C172.51 8.13867 172.574 7.73828 172.699 7.37109C172.824 7 173 6.67773 173.227 6.4043C173.453 6.13086 173.723 5.91992 174.035 5.77148C174.352 5.61914 174.701 5.54297 175.084 5.54297C175.396 5.54297 175.678 5.58594 175.928 5.67188C176.178 5.75391 176.391 5.88672 176.566 6.07031C176.746 6.25391 176.883 6.49219 176.977 6.78516C177.07 7.07422 177.117 7.42773 177.117 7.8457V12H176.027V7.83398C176.027 7.50195 175.979 7.23633 175.881 7.03711C175.783 6.83398 175.641 6.6875 175.453 6.59766C175.266 6.50391 175.035 6.45703 174.762 6.45703C174.492 6.45703 174.246 6.51367 174.023 6.62695C173.805 6.74023 173.615 6.89648 173.455 7.0957C173.299 7.29492 173.176 7.52344 173.086 7.78125C173 8.03516 172.957 8.30469 172.957 8.58984ZM183.24 10.7695V3H184.33V12H183.334L183.24 10.7695ZM178.974 8.90039V8.77734C178.974 8.29297 179.033 7.85352 179.15 7.45898C179.271 7.06055 179.441 6.71875 179.66 6.43359C179.882 6.14844 180.146 5.92969 180.451 5.77734C180.759 5.62109 181.103 5.54297 181.482 5.54297C181.88 5.54297 182.228 5.61328 182.525 5.75391C182.826 5.89062 183.08 6.0918 183.287 6.35742C183.498 6.61914 183.664 6.93555 183.785 7.30664C183.906 7.67773 183.99 8.09766 184.037 8.56641V9.10547C183.994 9.57031 183.91 9.98828 183.785 10.3594C183.664 10.7305 183.498 11.0469 183.287 11.3086C183.08 11.5703 182.826 11.7715 182.525 11.9121C182.224 12.0488 181.873 12.1172 181.47 12.1172C181.099 12.1172 180.759 12.0371 180.451 11.877C180.146 11.7168 179.882 11.4922 179.66 11.2031C179.441 10.9141 179.271 10.5742 179.15 10.1836C179.033 9.78906 178.974 9.36133 178.974 8.90039ZM180.064 8.77734V8.90039C180.064 9.2168 180.095 9.51367 180.158 9.79102C180.224 10.0684 180.326 10.3125 180.462 10.5234C180.599 10.7344 180.773 10.9004 180.984 11.0215C181.195 11.1387 181.447 11.1973 181.74 11.1973C182.099 11.1973 182.394 11.1211 182.625 10.9688C182.859 10.8164 183.046 10.6152 183.187 10.3652C183.328 10.1152 183.437 9.84375 183.515 9.55078V8.13867C183.468 7.92383 183.4 7.7168 183.31 7.51758C183.224 7.31445 183.111 7.13477 182.97 6.97852C182.834 6.81836 182.664 6.69141 182.46 6.59766C182.261 6.50391 182.025 6.45703 181.751 6.45703C181.455 6.45703 181.199 6.51953 180.984 6.64453C180.773 6.76562 180.599 6.93359 180.462 7.14844C180.326 7.35938 180.224 7.60547 180.158 7.88672C180.095 8.16406 180.064 8.46094 180.064 8.77734ZM187.675 5.66016V12H186.585V5.66016H187.675ZM186.503 3.97852C186.503 3.80273 186.556 3.6543 186.661 3.5332C186.771 3.41211 186.931 3.35156 187.142 3.35156C187.349 3.35156 187.507 3.41211 187.616 3.5332C187.73 3.6543 187.786 3.80273 187.786 3.97852C187.786 4.14648 187.73 4.29102 187.616 4.41211C187.507 4.5293 187.349 4.58789 187.142 4.58789C186.931 4.58789 186.771 4.5293 186.661 4.41211C186.556 4.29102 186.503 4.14648 186.503 3.97852ZM192.549 5.66016V6.49219H189.122V5.66016H192.549ZM190.282 4.11914H191.366V10.4297C191.366 10.6445 191.399 10.8066 191.465 10.916C191.532 11.0254 191.618 11.0977 191.723 11.1328C191.829 11.168 191.942 11.1855 192.063 11.1855C192.153 11.1855 192.247 11.1777 192.344 11.1621C192.446 11.1426 192.522 11.127 192.573 11.1152L192.579 12C192.493 12.0273 192.379 12.0527 192.239 12.0762C192.102 12.1035 191.936 12.1172 191.741 12.1172C191.475 12.1172 191.231 12.0645 191.008 11.959C190.786 11.8535 190.608 11.6777 190.475 11.4316C190.346 11.1816 190.282 10.8457 190.282 10.4238V4.11914ZM195.479 5.66016V12H194.389V5.66016H195.479ZM194.307 3.97852C194.307 3.80273 194.359 3.6543 194.465 3.5332C194.574 3.41211 194.734 3.35156 194.945 3.35156C195.152 3.35156 195.311 3.41211 195.42 3.5332C195.533 3.6543 195.59 3.80273 195.59 3.97852C195.59 4.14648 195.533 4.29102 195.42 4.41211C195.311 4.5293 195.152 4.58789 194.945 4.58789C194.734 4.58789 194.574 4.5293 194.465 4.41211C194.359 4.29102 194.307 4.14648 194.307 3.97852ZM197.412 8.90039V8.76562C197.412 8.30859 197.478 7.88477 197.611 7.49414C197.744 7.09961 197.935 6.75781 198.185 6.46875C198.435 6.17578 198.738 5.94922 199.093 5.78906C199.449 5.625 199.847 5.54297 200.289 5.54297C200.734 5.54297 201.134 5.625 201.49 5.78906C201.849 5.94922 202.154 6.17578 202.404 6.46875C202.658 6.75781 202.851 7.09961 202.984 7.49414C203.117 7.88477 203.183 8.30859 203.183 8.76562V8.90039C203.183 9.35742 203.117 9.78125 202.984 10.1719C202.851 10.5625 202.658 10.9043 202.404 11.1973C202.154 11.4863 201.851 11.7129 201.496 11.877C201.144 12.0371 200.746 12.1172 200.3 12.1172C199.855 12.1172 199.455 12.0371 199.099 11.877C198.744 11.7129 198.439 11.4863 198.185 11.1973C197.935 10.9043 197.744 10.5625 197.611 10.1719C197.478 9.78125 197.412 9.35742 197.412 8.90039ZM198.496 8.76562V8.90039C198.496 9.2168 198.533 9.51562 198.607 9.79688C198.681 10.0742 198.793 10.3203 198.941 10.5352C199.093 10.75 199.283 10.9199 199.509 11.0449C199.736 11.166 200 11.2266 200.3 11.2266C200.597 11.2266 200.857 11.166 201.08 11.0449C201.306 10.9199 201.494 10.75 201.642 10.5352C201.791 10.3203 201.902 10.0742 201.976 9.79688C202.054 9.51562 202.093 9.2168 202.093 8.90039V8.76562C202.093 8.45312 202.054 8.1582 201.976 7.88086C201.902 7.59961 201.789 7.35156 201.636 7.13672C201.488 6.91797 201.3 6.74609 201.074 6.62109C200.851 6.49609 200.589 6.43359 200.289 6.43359C199.992 6.43359 199.73 6.49609 199.504 6.62109C199.281 6.74609 199.093 6.91797 198.941 7.13672C198.793 7.35156 198.681 7.59961 198.607 7.88086C198.533 8.1582 198.496 8.45312 198.496 8.76562ZM206.107 7.01367V12H205.023V5.66016H206.048L206.107 7.01367ZM205.849 8.58984L205.398 8.57227C205.401 8.13867 205.466 7.73828 205.591 7.37109C205.716 7 205.892 6.67773 206.118 6.4043C206.345 6.13086 206.614 5.91992 206.927 5.77148C207.243 5.61914 207.593 5.54297 207.976 5.54297C208.288 5.54297 208.569 5.58594 208.819 5.67188C209.069 5.75391 209.282 5.88672 209.458 6.07031C209.638 6.25391 209.775 6.49219 209.868 6.78516C209.962 7.07422 210.009 7.42773 210.009 7.8457V12H208.919V7.83398C208.919 7.50195 208.87 7.23633 208.773 7.03711C208.675 6.83398 208.532 6.6875 208.345 6.59766C208.157 6.50391 207.927 6.45703 207.653 6.45703C207.384 6.45703 207.138 6.51367 206.915 6.62695C206.696 6.74023 206.507 6.89648 206.347 7.0957C206.191 7.29492 206.068 7.52344 205.978 7.78125C205.892 8.03516 205.849 8.30469 205.849 8.58984ZM215.827 10.3184C215.827 10.1621 215.792 10.0176 215.721 9.88477C215.655 9.74805 215.516 9.625 215.305 9.51562C215.098 9.40234 214.786 9.30469 214.368 9.22266C214.016 9.14844 213.698 9.06055 213.413 8.95898C213.131 8.85742 212.891 8.73438 212.692 8.58984C212.497 8.44531 212.346 8.27539 212.241 8.08008C212.135 7.88477 212.083 7.65625 212.083 7.39453C212.083 7.14453 212.137 6.9082 212.247 6.68555C212.36 6.46289 212.518 6.26562 212.721 6.09375C212.928 5.92188 213.176 5.78711 213.465 5.68945C213.755 5.5918 214.077 5.54297 214.432 5.54297C214.94 5.54297 215.374 5.63281 215.733 5.8125C216.092 5.99219 216.368 6.23242 216.559 6.5332C216.751 6.83008 216.846 7.16016 216.846 7.52344H215.762C215.762 7.34766 215.71 7.17773 215.604 7.01367C215.503 6.8457 215.352 6.70703 215.153 6.59766C214.958 6.48828 214.717 6.43359 214.432 6.43359C214.131 6.43359 213.887 6.48047 213.7 6.57422C213.516 6.66406 213.381 6.7793 213.296 6.91992C213.214 7.06055 213.173 7.20898 213.173 7.36523C213.173 7.48242 213.192 7.58789 213.231 7.68164C213.274 7.77148 213.348 7.85547 213.454 7.93359C213.559 8.00781 213.708 8.07812 213.899 8.14453C214.09 8.21094 214.335 8.27734 214.631 8.34375C215.151 8.46094 215.579 8.60156 215.915 8.76562C216.251 8.92969 216.501 9.13086 216.665 9.36914C216.829 9.60742 216.911 9.89648 216.911 10.2363C216.911 10.5137 216.852 10.7676 216.735 10.998C216.622 11.2285 216.456 11.4277 216.237 11.5957C216.022 11.7598 215.764 11.8887 215.464 11.9824C215.167 12.0723 214.833 12.1172 214.462 12.1172C213.903 12.1172 213.43 12.0176 213.044 11.8184C212.657 11.6191 212.364 11.3613 212.165 11.0449C211.965 10.7285 211.866 10.3945 211.866 10.043H212.956C212.971 10.3398 213.057 10.5762 213.214 10.752C213.37 10.9238 213.561 11.0469 213.788 11.1211C214.014 11.1914 214.239 11.2266 214.462 11.2266C214.758 11.2266 215.006 11.1875 215.206 11.1094C215.409 11.0312 215.563 10.9238 215.669 10.7871C215.774 10.6504 215.827 10.4941 215.827 10.3184ZM221.984 8.90039V8.76562C221.984 8.30859 222.05 7.88477 222.183 7.49414C222.316 7.09961 222.507 6.75781 222.757 6.46875C223.007 6.17578 223.31 5.94922 223.666 5.78906C224.021 5.625 224.42 5.54297 224.861 5.54297C225.306 5.54297 225.707 5.625 226.062 5.78906C226.422 5.94922 226.726 6.17578 226.976 6.46875C227.23 6.75781 227.424 7.09961 227.556 7.49414C227.689 7.88477 227.756 8.30859 227.756 8.76562V8.90039C227.756 9.35742 227.689 9.78125 227.556 10.1719C227.424 10.5625 227.23 10.9043 226.976 11.1973C226.726 11.4863 226.424 11.7129 226.068 11.877C225.716 12.0371 225.318 12.1172 224.873 12.1172C224.427 12.1172 224.027 12.0371 223.672 11.877C223.316 11.7129 223.011 11.4863 222.757 11.1973C222.507 10.9043 222.316 10.5625 222.183 10.1719C222.05 9.78125 221.984 9.35742 221.984 8.90039ZM223.068 8.76562V8.90039C223.068 9.2168 223.105 9.51562 223.179 9.79688C223.254 10.0742 223.365 10.3203 223.513 10.5352C223.666 10.75 223.855 10.9199 224.082 11.0449C224.308 11.166 224.572 11.2266 224.873 11.2266C225.17 11.2266 225.429 11.166 225.652 11.0449C225.879 10.9199 226.066 10.75 226.215 10.5352C226.363 10.3203 226.474 10.0742 226.549 9.79688C226.627 9.51562 226.666 9.2168 226.666 8.90039V8.76562C226.666 8.45312 226.627 8.1582 226.549 7.88086C226.474 7.59961 226.361 7.35156 226.209 7.13672C226.06 6.91797 225.873 6.74609 225.646 6.62109C225.424 6.49609 225.162 6.43359 224.861 6.43359C224.564 6.43359 224.302 6.49609 224.076 6.62109C223.853 6.74609 223.666 6.91797 223.513 7.13672C223.365 7.35156 223.254 7.59961 223.179 7.88086C223.105 8.1582 223.068 8.45312 223.068 8.76562ZM231.212 12H230.128V4.99219C230.128 4.53516 230.21 4.15039 230.374 3.83789C230.542 3.52148 230.782 3.2832 231.095 3.12305C231.407 2.95898 231.779 2.87695 232.208 2.87695C232.333 2.87695 232.458 2.88477 232.583 2.90039C232.712 2.91602 232.837 2.93945 232.958 2.9707L232.9 3.85547C232.818 3.83594 232.724 3.82227 232.618 3.81445C232.517 3.80664 232.415 3.80273 232.314 3.80273C232.083 3.80273 231.884 3.84961 231.716 3.94336C231.552 4.0332 231.427 4.16602 231.341 4.3418C231.255 4.51758 231.212 4.73438 231.212 4.99219V12ZM232.56 5.66016V6.49219H229.126V5.66016H232.56ZM240.358 5.66016V6.49219H236.93V5.66016H240.358ZM238.09 4.11914H239.174V10.4297C239.174 10.6445 239.207 10.8066 239.274 10.916C239.34 11.0254 239.426 11.0977 239.531 11.1328C239.637 11.168 239.75 11.1855 239.871 11.1855C239.961 11.1855 240.055 11.1777 240.153 11.1621C240.254 11.1426 240.33 11.127 240.381 11.1152L240.387 12C240.301 12.0273 240.188 12.0527 240.047 12.0762C239.91 12.1035 239.744 12.1172 239.549 12.1172C239.283 12.1172 239.039 12.0645 238.817 11.959C238.594 11.8535 238.416 11.6777 238.283 11.4316C238.155 11.1816 238.09 10.8457 238.09 10.4238V4.11914ZM243.193 3V12H242.109V3H243.193ZM242.935 8.58984L242.484 8.57227C242.488 8.13867 242.553 7.73828 242.678 7.37109C242.803 7 242.978 6.67773 243.205 6.4043C243.431 6.13086 243.701 5.91992 244.013 5.77148C244.33 5.61914 244.679 5.54297 245.062 5.54297C245.375 5.54297 245.656 5.58594 245.906 5.67188C246.156 5.75391 246.369 5.88672 246.545 6.07031C246.724 6.25391 246.861 6.49219 246.955 6.78516C247.049 7.07422 247.095 7.42773 247.095 7.8457V12H246.006V7.83398C246.006 7.50195 245.957 7.23633 245.859 7.03711C245.761 6.83398 245.619 6.6875 245.431 6.59766C245.244 6.50391 245.013 6.45703 244.74 6.45703C244.47 6.45703 244.224 6.51367 244.002 6.62695C243.783 6.74023 243.594 6.89648 243.433 7.0957C243.277 7.29492 243.154 7.52344 243.064 7.78125C242.978 8.03516 242.935 8.30469 242.935 8.58984ZM251.829 12.1172C251.388 12.1172 250.988 12.043 250.628 11.8945C250.273 11.7422 249.966 11.5293 249.708 11.2559C249.454 10.9824 249.259 10.6582 249.122 10.2832C248.986 9.9082 248.917 9.49805 248.917 9.05273V8.80664C248.917 8.29102 248.993 7.83203 249.146 7.42969C249.298 7.02344 249.505 6.67969 249.767 6.39844C250.029 6.11719 250.325 5.9043 250.658 5.75977C250.99 5.61523 251.333 5.54297 251.689 5.54297C252.142 5.54297 252.533 5.62109 252.861 5.77734C253.193 5.93359 253.464 6.15234 253.675 6.43359C253.886 6.71094 254.042 7.03906 254.144 7.41797C254.245 7.79297 254.296 8.20312 254.296 8.64844V9.13477H249.562V8.25H253.212V8.16797C253.197 7.88672 253.138 7.61328 253.036 7.34766C252.939 7.08203 252.783 6.86328 252.568 6.69141C252.353 6.51953 252.06 6.43359 251.689 6.43359C251.443 6.43359 251.216 6.48633 251.009 6.5918C250.802 6.69336 250.624 6.8457 250.476 7.04883C250.327 7.25195 250.212 7.5 250.13 7.79297C250.048 8.08594 250.007 8.42383 250.007 8.80664V9.05273C250.007 9.35352 250.048 9.63672 250.13 9.90234C250.216 10.1641 250.339 10.3945 250.499 10.5938C250.663 10.793 250.861 10.9492 251.091 11.0625C251.325 11.1758 251.591 11.2324 251.888 11.2324C252.271 11.2324 252.595 11.1543 252.861 10.998C253.126 10.8418 253.359 10.6328 253.558 10.3711L254.214 10.8926C254.077 11.0996 253.904 11.2969 253.693 11.4844C253.482 11.6719 253.222 11.8242 252.913 11.9414C252.609 12.0586 252.247 12.1172 251.829 12.1172Z" fill="#8E8F99"/>
<path d="M262.809 8.6543H260.53V7.73438H262.809C263.25 7.73438 263.608 7.66406 263.881 7.52344C264.155 7.38281 264.354 7.1875 264.479 6.9375C264.608 6.6875 264.672 6.40234 264.672 6.08203C264.672 5.78906 264.608 5.51367 264.479 5.25586C264.354 4.99805 264.155 4.79102 263.881 4.63477C263.608 4.47461 263.25 4.39453 262.809 4.39453H260.793V12H259.662V3.46875H262.809C263.453 3.46875 263.998 3.58008 264.444 3.80273C264.889 4.02539 265.227 4.33398 265.457 4.72852C265.688 5.11914 265.803 5.56641 265.803 6.07031C265.803 6.61719 265.688 7.08398 265.457 7.4707C265.227 7.85742 264.889 8.15234 264.444 8.35547C263.998 8.55469 263.453 8.6543 262.809 8.6543ZM268.633 6.65625V12H267.549V5.66016H268.603L268.633 6.65625ZM270.613 5.625L270.607 6.63281C270.517 6.61328 270.431 6.60156 270.349 6.59766C270.271 6.58984 270.181 6.58594 270.08 6.58594C269.83 6.58594 269.609 6.625 269.418 6.70312C269.226 6.78125 269.064 6.89062 268.931 7.03125C268.799 7.17188 268.693 7.33984 268.615 7.53516C268.541 7.72656 268.492 7.9375 268.469 8.16797L268.164 8.34375C268.164 7.96094 268.201 7.60156 268.275 7.26562C268.353 6.92969 268.473 6.63281 268.633 6.375C268.793 6.11328 268.996 5.91016 269.242 5.76562C269.492 5.61719 269.789 5.54297 270.133 5.54297C270.211 5.54297 270.301 5.55273 270.402 5.57227C270.504 5.58789 270.574 5.60547 270.613 5.625ZM273.273 5.66016V12H272.183V5.66016H273.273ZM272.101 3.97852C272.101 3.80273 272.154 3.6543 272.259 3.5332C272.369 3.41211 272.529 3.35156 272.74 3.35156C272.947 3.35156 273.105 3.41211 273.214 3.5332C273.327 3.6543 273.384 3.80273 273.384 3.97852C273.384 4.14648 273.327 4.29102 273.214 4.41211C273.105 4.5293 272.947 4.58789 272.74 4.58789C272.529 4.58789 272.369 4.5293 272.259 4.41211C272.154 4.29102 272.101 4.14648 272.101 3.97852ZM277.421 11.0215L279.155 5.66016H280.263L277.983 12H277.257L277.421 11.0215ZM275.974 5.66016L277.761 11.0508L277.884 12H277.157L274.86 5.66016H275.974ZM285.43 10.916V7.65234C285.43 7.40234 285.379 7.18555 285.278 7.00195C285.18 6.81445 285.032 6.66992 284.832 6.56836C284.633 6.4668 284.387 6.41602 284.094 6.41602C283.821 6.41602 283.58 6.46289 283.373 6.55664C283.17 6.65039 283.01 6.77344 282.893 6.92578C282.78 7.07812 282.723 7.24219 282.723 7.41797H281.639C281.639 7.19141 281.698 6.9668 281.815 6.74414C281.932 6.52148 282.1 6.32031 282.319 6.14062C282.541 5.95703 282.807 5.8125 283.116 5.70703C283.428 5.59766 283.776 5.54297 284.159 5.54297C284.62 5.54297 285.026 5.62109 285.377 5.77734C285.733 5.93359 286.01 6.16992 286.209 6.48633C286.413 6.79883 286.514 7.19141 286.514 7.66406V10.6172C286.514 10.8281 286.532 11.0527 286.567 11.291C286.606 11.5293 286.663 11.7344 286.737 11.9062V12H285.606C285.551 11.875 285.508 11.709 285.477 11.502C285.446 11.291 285.43 11.0957 285.43 10.916ZM285.618 8.15625L285.629 8.91797H284.534C284.225 8.91797 283.95 8.94336 283.707 8.99414C283.465 9.04102 283.262 9.11328 283.098 9.21094C282.934 9.30859 282.809 9.43164 282.723 9.58008C282.637 9.72461 282.594 9.89453 282.594 10.0898C282.594 10.2891 282.639 10.4707 282.729 10.6348C282.819 10.7988 282.954 10.9297 283.133 11.0273C283.317 11.1211 283.541 11.168 283.807 11.168C284.139 11.168 284.432 11.0977 284.686 10.957C284.94 10.8164 285.141 10.6445 285.289 10.4414C285.442 10.2383 285.524 10.041 285.536 9.84961L285.998 10.3711C285.971 10.5352 285.897 10.7168 285.776 10.916C285.655 11.1152 285.493 11.3066 285.289 11.4902C285.09 11.6699 284.852 11.8203 284.575 11.9414C284.301 12.0586 283.993 12.1172 283.649 12.1172C283.219 12.1172 282.842 12.0332 282.518 11.8652C282.198 11.6973 281.948 11.4727 281.768 11.1914C281.592 10.9062 281.504 10.5879 281.504 10.2363C281.504 9.89648 281.571 9.59766 281.704 9.33984C281.836 9.07812 282.028 8.86133 282.278 8.68945C282.528 8.51367 282.829 8.38086 283.18 8.29102C283.532 8.20117 283.924 8.15625 284.358 8.15625H285.618ZM291.236 11.2266C291.494 11.2266 291.732 11.1738 291.951 11.0684C292.17 10.9629 292.35 10.8184 292.49 10.6348C292.631 10.4473 292.711 10.2344 292.73 9.99609H293.762C293.742 10.3711 293.615 10.7207 293.381 11.0449C293.15 11.3652 292.848 11.625 292.473 11.8242C292.098 12.0195 291.685 12.1172 291.236 12.1172C290.76 12.1172 290.344 12.0332 289.988 11.8652C289.637 11.6973 289.344 11.4668 289.109 11.1738C288.879 10.8809 288.705 10.5449 288.588 10.166C288.475 9.7832 288.418 9.37891 288.418 8.95312V8.70703C288.418 8.28125 288.475 7.87891 288.588 7.5C288.705 7.11719 288.879 6.7793 289.109 6.48633C289.344 6.19336 289.637 5.96289 289.988 5.79492C290.344 5.62695 290.76 5.54297 291.236 5.54297C291.732 5.54297 292.166 5.64453 292.537 5.84766C292.908 6.04688 293.199 6.32031 293.41 6.66797C293.625 7.01172 293.742 7.40234 293.762 7.83984H292.73C292.711 7.57812 292.637 7.3418 292.508 7.13086C292.383 6.91992 292.211 6.75195 291.992 6.62695C291.777 6.49805 291.525 6.43359 291.236 6.43359C290.904 6.43359 290.625 6.5 290.398 6.63281C290.176 6.76172 289.998 6.9375 289.865 7.16016C289.736 7.37891 289.642 7.62305 289.584 7.89258C289.529 8.1582 289.502 8.42969 289.502 8.70703V8.95312C289.502 9.23047 289.529 9.50391 289.584 9.77344C289.639 10.043 289.73 10.2871 289.859 10.5059C289.992 10.7246 290.17 10.9004 290.392 11.0332C290.619 11.1621 290.9 11.2266 291.236 11.2266ZM297.242 11.3438L299.005 5.66016H300.165L297.622 12.9785C297.564 13.1348 297.486 13.3027 297.388 13.4824C297.294 13.666 297.173 13.8398 297.025 14.0039C296.876 14.168 296.697 14.3008 296.486 14.4023C296.279 14.5078 296.031 14.5605 295.742 14.5605C295.656 14.5605 295.546 14.5488 295.414 14.5254C295.281 14.502 295.187 14.4824 295.132 14.4668L295.126 13.5879C295.158 13.5918 295.206 13.5957 295.273 13.5996C295.343 13.6074 295.392 13.6113 295.419 13.6113C295.665 13.6113 295.874 13.5781 296.046 13.5117C296.218 13.4492 296.363 13.3418 296.48 13.1895C296.601 13.041 296.705 12.8359 296.79 12.5742L297.242 11.3438ZM295.947 5.66016L297.593 10.582L297.874 11.7246L297.095 12.123L294.763 5.66016H295.947ZM308.391 8.6543H306.112V7.73438H308.391C308.832 7.73438 309.19 7.66406 309.463 7.52344C309.737 7.38281 309.936 7.1875 310.061 6.9375C310.19 6.6875 310.254 6.40234 310.254 6.08203C310.254 5.78906 310.19 5.51367 310.061 5.25586C309.936 4.99805 309.737 4.79102 309.463 4.63477C309.19 4.47461 308.832 4.39453 308.391 4.39453H306.375V12H305.245V3.46875H308.391C309.036 3.46875 309.581 3.58008 310.026 3.80273C310.471 4.02539 310.809 4.33398 311.04 4.72852C311.27 5.11914 311.385 5.56641 311.385 6.07031C311.385 6.61719 311.27 7.08398 311.04 7.4707C310.809 7.85742 310.471 8.15234 310.026 8.35547C309.581 8.55469 309.036 8.6543 308.391 8.6543ZM312.762 8.90039V8.76562C312.762 8.30859 312.828 7.88477 312.961 7.49414C313.094 7.09961 313.285 6.75781 313.535 6.46875C313.785 6.17578 314.088 5.94922 314.443 5.78906C314.799 5.625 315.197 5.54297 315.639 5.54297C316.084 5.54297 316.484 5.625 316.84 5.78906C317.199 5.94922 317.504 6.17578 317.754 6.46875C318.008 6.75781 318.201 7.09961 318.334 7.49414C318.467 7.88477 318.533 8.30859 318.533 8.76562V8.90039C318.533 9.35742 318.467 9.78125 318.334 10.1719C318.201 10.5625 318.008 10.9043 317.754 11.1973C317.504 11.4863 317.201 11.7129 316.846 11.877C316.494 12.0371 316.096 12.1172 315.65 12.1172C315.205 12.1172 314.805 12.0371 314.449 11.877C314.094 11.7129 313.789 11.4863 313.535 11.1973C313.285 10.9043 313.094 10.5625 312.961 10.1719C312.828 9.78125 312.762 9.35742 312.762 8.90039ZM313.846 8.76562V8.90039C313.846 9.2168 313.883 9.51562 313.957 9.79688C314.031 10.0742 314.143 10.3203 314.291 10.5352C314.443 10.75 314.633 10.9199 314.859 11.0449C315.086 11.166 315.35 11.2266 315.65 11.2266C315.947 11.2266 316.207 11.166 316.43 11.0449C316.656 10.9199 316.844 10.75 316.992 10.5352C317.141 10.3203 317.252 10.0742 317.326 9.79688C317.404 9.51562 317.443 9.2168 317.443 8.90039V8.76562C317.443 8.45312 317.404 8.1582 317.326 7.88086C317.252 7.59961 317.139 7.35156 316.986 7.13672C316.838 6.91797 316.65 6.74609 316.424 6.62109C316.201 6.49609 315.939 6.43359 315.639 6.43359C315.342 6.43359 315.08 6.49609 314.854 6.62109C314.631 6.74609 314.443 6.91797 314.291 7.13672C314.143 7.35156 314.031 7.59961 313.957 7.88086C313.883 8.1582 313.846 8.45312 313.846 8.76562ZM321.55 3V12H320.46V3H321.55ZM324.948 5.66016V12H323.858V5.66016H324.948ZM323.776 3.97852C323.776 3.80273 323.829 3.6543 323.935 3.5332C324.044 3.41211 324.204 3.35156 324.415 3.35156C324.622 3.35156 324.78 3.41211 324.89 3.5332C325.003 3.6543 325.06 3.80273 325.06 3.97852C325.06 4.14648 325.003 4.29102 324.89 4.41211C324.78 4.5293 324.622 4.58789 324.415 4.58789C324.204 4.58789 324.044 4.5293 323.935 4.41211C323.829 4.29102 323.776 4.14648 323.776 3.97852ZM329.706 11.2266C329.963 11.2266 330.202 11.1738 330.42 11.0684C330.639 10.9629 330.819 10.8184 330.96 10.6348C331.1 10.4473 331.18 10.2344 331.2 9.99609H332.231C332.211 10.3711 332.085 10.7207 331.85 11.0449C331.62 11.3652 331.317 11.625 330.942 11.8242C330.567 12.0195 330.155 12.1172 329.706 12.1172C329.229 12.1172 328.813 12.0332 328.458 11.8652C328.106 11.6973 327.813 11.4668 327.579 11.1738C327.348 10.8809 327.174 10.5449 327.057 10.166C326.944 9.7832 326.887 9.37891 326.887 8.95312V8.70703C326.887 8.28125 326.944 7.87891 327.057 7.5C327.174 7.11719 327.348 6.7793 327.579 6.48633C327.813 6.19336 328.106 5.96289 328.458 5.79492C328.813 5.62695 329.229 5.54297 329.706 5.54297C330.202 5.54297 330.635 5.64453 331.006 5.84766C331.378 6.04688 331.669 6.32031 331.879 6.66797C332.094 7.01172 332.211 7.40234 332.231 7.83984H331.2C331.18 7.57812 331.106 7.3418 330.977 7.13086C330.852 6.91992 330.68 6.75195 330.461 6.62695C330.247 6.49805 329.995 6.43359 329.706 6.43359C329.374 6.43359 329.094 6.5 328.868 6.63281C328.645 6.76172 328.467 6.9375 328.335 7.16016C328.206 7.37891 328.112 7.62305 328.053 7.89258C327.999 8.1582 327.971 8.42969 327.971 8.70703V8.95312C327.971 9.23047 327.999 9.50391 328.053 9.77344C328.108 10.043 328.2 10.2871 328.329 10.5059C328.461 10.7246 328.639 10.9004 328.862 11.0332C329.088 11.1621 329.37 11.2266 329.706 11.2266ZM335.711 11.3438L337.475 5.66016H338.635L336.092 12.9785C336.033 13.1348 335.955 13.3027 335.858 13.4824C335.764 13.666 335.643 13.8398 335.494 14.0039C335.346 14.168 335.166 14.3008 334.955 14.4023C334.748 14.5078 334.5 14.5605 334.211 14.5605C334.125 14.5605 334.016 14.5488 333.883 14.5254C333.75 14.502 333.656 14.4824 333.602 14.4668L333.596 13.5879C333.627 13.5918 333.676 13.5957 333.742 13.5996C333.813 13.6074 333.861 13.6113 333.889 13.6113C334.135 13.6113 334.344 13.5781 334.516 13.5117C334.688 13.4492 334.832 13.3418 334.949 13.1895C335.07 13.041 335.174 12.8359 335.26 12.5742L335.711 11.3438ZM334.416 5.66016L336.063 10.582L336.344 11.7246L335.565 12.123L333.233 5.66016H334.416Z" fill="#4D5AE5"/>
<path d="M258.672 13.1719H338.781V13.7578H258.672V13.1719Z" fill="#4D5AE5"/>
</svg>
